<?xml version="1.0" encoding="UTF-8"?><svg xmlns="http://www.w3.org/2000/svg" xmlns:xlink="http://www.w3.org/1999/xlink" contentScriptType="text/ecmascript" width="150" zoomAndPan="magnify" contentStyleType="text/css" viewBox="0 0 150 149.999998" height="149.999998" preserveAspectRatio="xMidYMid meet" version="1.0"><defs><clipPath id="clip-0"><path d="M 27.273438 0 L 122 0 L 122 149 L 27.273438 149 Z M 27.273438 0 " clip-rule="nonzero"/></clipPath></defs><g clip-path="url(#clip-0)"><path fill="rgb(100%, 100%, 100%)" d="M 116.625 147.035156 C 116.105469 147.320312 115.5625 147.554688 115 147.734375 C 114.4375 147.917969 113.859375 148.042969 113.273438 148.113281 C 112.683594 148.183594 112.09375 148.199219 111.503906 148.15625 C 110.914062 148.113281 110.332031 148.015625 109.757812 147.859375 C 109.1875 147.707031 108.632812 147.5 108.101562 147.238281 C 107.570312 146.976562 107.066406 146.667969 106.59375 146.3125 C 106.121094 145.953125 105.683594 145.554688 105.289062 145.113281 C 104.890625 144.675781 104.539062 144.199219 104.234375 143.691406 L 78.507812 99.035156 L 84.261719 89.042969 C 84.511719 88.648438 84.675781 88.21875 84.75 87.757812 C 84.824219 87.300781 84.808594 86.84375 84.695312 86.390625 C 84.585938 85.9375 84.390625 85.523438 84.113281 85.148438 C 83.832031 84.777344 83.492188 84.472656 83.089844 84.238281 C 82.683594 84.003906 82.253906 83.859375 81.789062 83.804688 C 81.328125 83.746094 80.871094 83.785156 80.425781 83.914062 C 79.976562 84.042969 79.574219 84.257812 79.214844 84.554688 C 78.851562 84.847656 78.566406 85.203125 78.347656 85.617188 L 68.164062 103.273438 L 44.863281 143.683594 C 44.554688 144.191406 44.203125 144.660156 43.804688 145.101562 C 43.40625 145.539062 42.972656 145.933594 42.496094 146.289062 C 42.023438 146.644531 41.523438 146.949219 40.992188 147.210938 C 40.457031 147.46875 39.90625 147.675781 39.335938 147.828125 C 38.765625 147.984375 38.1875 148.082031 37.597656 148.125 C 37.007812 148.167969 36.417969 148.15625 35.832031 148.089844 C 35.246094 148.019531 34.667969 147.894531 34.105469 147.71875 C 33.542969 147.539062 33 147.308594 32.480469 147.027344 C 31.703125 146.578125 31.011719 146.027344 30.398438 145.375 C 29.785156 144.722656 29.28125 143.992188 28.882812 143.191406 C 28.484375 142.386719 28.210938 141.542969 28.0625 140.660156 C 27.910156 139.777344 27.890625 138.890625 28.003906 138 C 28.046875 137.613281 28.027344 137.230469 27.941406 136.847656 L 27.941406 59.589844 L 46.09375 59.589844 L 46.09375 101.847656 C 46.09375 102.304688 46.183594 102.742188 46.355469 103.160156 C 46.527344 103.578125 46.777344 103.949219 47.097656 104.269531 C 47.417969 104.59375 47.785156 104.839844 48.203125 105.011719 C 48.625 105.1875 49.058594 105.273438 49.511719 105.273438 C 49.964844 105.273438 50.402344 105.1875 50.820312 105.011719 C 51.238281 104.839844 51.609375 104.59375 51.929688 104.269531 C 52.25 103.949219 52.496094 103.578125 52.667969 103.160156 C 52.84375 102.742188 52.929688 102.304688 52.929688 101.847656 L 52.929688 93.34375 L 93.414062 23.082031 C 93.5625 22.820312 93.675781 22.546875 93.753906 22.257812 C 93.832031 21.964844 93.871094 21.671875 93.871094 21.371094 C 93.871094 21.070312 93.832031 20.773438 93.753906 20.484375 C 93.675781 20.191406 93.5625 19.917969 93.414062 19.65625 C 93.265625 19.398438 93.082031 19.160156 92.871094 18.949219 C 92.660156 18.734375 92.421875 18.554688 92.164062 18.402344 C 91.902344 18.253906 91.628906 18.140625 91.339844 18.0625 C 91.050781 17.984375 90.753906 17.945312 90.453125 17.945312 L 27.933594 17.945312 L 27.933594 -0.246094 L 111.535156 -0.246094 C 113.304688 -0.144531 115.003906 0.253906 116.632812 0.957031 C 117.148438 1.257812 117.628906 1.605469 118.078125 2 C 118.523438 2.394531 118.929688 2.832031 119.292969 3.304688 C 119.65625 3.777344 119.96875 4.285156 120.230469 4.820312 C 120.496094 5.355469 120.703125 5.910156 120.859375 6.488281 C 121.015625 7.066406 121.109375 7.652344 121.152344 8.25 C 121.191406 8.84375 121.171875 9.4375 121.097656 10.03125 C 121.019531 10.625 120.886719 11.203125 120.695312 11.769531 C 120.507812 12.335938 120.265625 12.878906 119.96875 13.398438 L 86.003906 72.300781 C 85.738281 72.910156 85.628906 73.546875 85.671875 74.210938 C 85.714844 74.875 85.910156 75.492188 86.25 76.0625 L 119.96875 134.582031 C 120.265625 135.101562 120.511719 135.644531 120.703125 136.210938 C 120.894531 136.777344 121.027344 137.359375 121.105469 137.953125 C 121.183594 138.546875 121.203125 139.140625 121.164062 139.738281 C 121.125 140.335938 121.027344 140.925781 120.871094 141.503906 C 120.714844 142.082031 120.503906 142.636719 120.242188 143.175781 C 119.976562 143.710938 119.660156 144.214844 119.296875 144.691406 C 118.933594 145.164062 118.527344 145.601562 118.078125 145.996094 C 117.628906 146.390625 117.144531 146.734375 116.625 147.035156 Z M 116.625 147.035156 " fill-opacity="1" fill-rule="nonzero"/></g></svg>